<svg width="18" height="18" viewBox="0 0 18 18" fill="none" xmlns="http://www.w3.org/2000/svg">
<circle cx="9" cy="10" r="7" fill="#F9F8F8"/>
<path d="M16.6438 2.90486H15.4307L15.443 2.89241C15.8499 2.45657 16.0373 1.92857 15.9805 1.36571C15.9312 0.865115 15.6526 0.461649 15.1989 0.230029C14.2052 -0.27804 12.6271 0.150332 11.8726 0.601119C10.9356 1.159 9.64356 2.19257 9 2.72056C8.35644 2.19008 7.06192 1.159 6.1274 0.601119C5.37288 0.152822 3.79479 -0.27555 2.8011 0.230029C2.3474 0.461649 2.07123 0.865115 2.01945 1.36571C1.96274 1.92857 2.14767 2.45657 2.55699 2.89241C2.56192 2.89739 2.56438 2.90237 2.56931 2.90486H1.35616C0.609041 2.90486 0 3.52003 0 4.27466V8.25952C0 8.86472 0.392055 9.38026 0.93452 9.55958C0.912329 9.66169 0.9 9.76878 0.9 9.87836V16.5057C0.9 17.33 1.56329 18 2.37945 18H15.6205C16.4367 18 17.1 17.33 17.1 16.5057V9.87836C17.1 9.76878 17.0877 9.66169 17.0655 9.55958C17.6079 9.38026 18 8.86472 18 8.25952V4.27466C18 3.52003 17.391 2.90486 16.6438 2.90486ZM16.7671 4.27466V8.25952C16.7671 8.32676 16.7104 8.38404 16.6438 8.38404H9.61644V4.15013H16.6438C16.7104 4.15013 16.7671 4.20741 16.7671 4.27466ZM12.5014 1.67205C13.14 1.291 14.22 1.12413 14.6441 1.34081C14.7378 1.38813 14.7477 1.42798 14.7551 1.49024C14.8438 2.35944 13.0488 2.81271 12.489 2.90237H10.7605C11.3326 2.45906 11.986 1.98088 12.5014 1.67205ZM3.24493 1.49273C3.25233 1.43047 3.26219 1.39062 3.35589 1.3433C3.78 1.12662 4.86247 1.29349 5.49863 1.67454C6.01397 1.98088 6.6674 2.46155 7.23945 2.90735H5.51096C4.95123 2.8152 3.15863 2.36193 3.24493 1.49273ZM1.23288 4.27466C1.23288 4.20741 1.28959 4.15013 1.35616 4.15013H8.38356V8.38404H1.35616C1.28959 8.38404 1.23288 8.32676 1.23288 8.25952V4.27466ZM2.13288 16.5082V9.87836C2.13288 9.74388 2.2463 9.62931 2.37945 9.62931H8.38356V16.7572H2.37945C2.2463 16.7572 2.13288 16.6427 2.13288 16.5082ZM15.8671 16.5082C15.8671 16.6427 15.7537 16.7572 15.6205 16.7572H9.61644V9.62931H15.6205C15.7537 9.62931 15.8671 9.74388 15.8671 9.87836V16.5082Z" fill="#D7D7D7"/>
</svg>
