<svg width="36" height="36" viewBox="0 0 36 36" fill="none" xmlns="http://www.w3.org/2000/svg">
<path d="M18 0C8.07596 0 0 8.07596 0 18C0 27.924 8.07596 36 18 36C27.924 36 36 27.924 36 18C36 8.07596 27.924 0 18 0ZM22.8285 20.927L23.9288 26.7169L18.6623 24.0677C18.5021 23.9929 18.3312 23.9501 18.1709 23.9501C17.9893 23.9501 17.797 24.0036 17.6368 24.089L12.4772 26.9306L13.3745 21.1086C13.4279 20.7454 13.3104 20.3822 13.0326 20.1365L8.7276 16.0985L14.5496 15.1371C14.9128 15.0837 15.2226 14.8487 15.3721 14.5175L17.8825 9.18694L20.5852 14.4214C20.7454 14.7418 21.0766 14.9662 21.4291 15.0196L27.2724 15.7567L23.1276 19.9442C22.8819 20.2006 22.7644 20.5745 22.8285 20.927Z" fill="#FFCC00"/>
</svg>
