<svg width="16" height="17" viewBox="0 0 16 17" fill="none" xmlns="http://www.w3.org/2000/svg">
<path fill-rule="evenodd" clip-rule="evenodd" d="M4 4.09822H4.00001L8.47043 0.372868C9.3152 -0.331102 10 -0.00915814 10 1.09331V15.1032C10 16.205 9.31172 16.5247 8.47043 15.8236L4.00001 12H4H2.5H1C0.447715 12 0 11.5523 0 11V5C0 4.44772 0.447715 4 1 4H4V4.09822ZM14.2929 1.09823L12.0001 4.34087L12.7072 5.04799L15 1.80535L14.2929 1.09823ZM14.6947 14.5L12.0001 11.8053L12.7072 11.0982L15.4018 13.7929L14.6947 14.5ZM15.5 7.09823H12V8.09824H15.5V7.09823Z" fill="#FFC961"/>
<path d="M8 5.33333L9 4V12L8 10.6667V5.33333Z" fill="white"/>
<path d="M2 5H4L3 6L2 7V5Z" fill="white"/>
</svg>
