<svg width="30" height="30" viewBox="0 0 30 30" fill="none" xmlns="http://www.w3.org/2000/svg">
<rect x="6" y="6" width="18" height="18" fill="white"/>
<path d="M15 0C6.72997 0 0 6.72997 0 15C0 23.27 6.72997 30 15 30C23.27 30 30 23.27 30 15C30 6.72997 23.27 0 15 0ZM19.0237 17.4392L19.9407 22.2641L15.5519 20.0564C15.4184 19.9941 15.276 19.9585 15.1424 19.9585C14.9911 19.9585 14.8309 20.003 14.6973 20.0742L10.3976 22.4421L11.1454 17.5905C11.1899 17.2878 11.092 16.9852 10.8605 16.7804L7.273 13.4154L12.1246 12.6142C12.4273 12.5697 12.6855 12.3739 12.8101 12.0979L14.9021 7.65579L17.1543 12.0178C17.2878 12.2849 17.5638 12.4718 17.8576 12.5163L22.727 13.1306L19.273 16.6202C19.0682 16.8338 18.9703 17.1454 19.0237 17.4392Z" fill="#F50003"/>
<path d="M15 0C6.72997 0 0 6.72997 0 15C0 23.27 6.72997 30 15 30C23.27 30 30 23.27 30 15C30 6.72997 23.27 0 15 0ZM19.0237 17.4392L19.9407 22.2641L15.5519 20.0564C15.4184 19.9941 15.276 19.9585 15.1424 19.9585C14.9911 19.9585 14.8309 20.003 14.6973 20.0742L10.3976 22.4421L11.1454 17.5905C11.1899 17.2878 11.092 16.9852 10.8605 16.7804L7.273 13.4154L12.1246 12.6142C12.4273 12.5697 12.6855 12.3739 12.8101 12.0979L14.9021 7.65579L17.1543 12.0178C17.2878 12.2849 17.5638 12.4718 17.8576 12.5163L22.727 13.1306L19.273 16.6202C19.0682 16.8338 18.9703 17.1454 19.0237 17.4392Z" fill="url(#paint0_linear_1_3259)"/>
<defs>
<linearGradient id="paint0_linear_1_3259" x1="0" y1="15" x2="30" y2="15" gradientUnits="userSpaceOnUse">
<stop stop-color="#FF2225"/>
<stop offset="0.473958" stop-color="#FF7121"/>
<stop offset="1" stop-color="#FF6D6D"/>
</linearGradient>
</defs>
</svg>
