<svg width="302" height="302" viewBox="0 0 302 302" fill="none" xmlns="http://www.w3.org/2000/svg">
<rect x="4" y="4" width="294" height="294" rx="16" fill="#B90101" stroke="#FF390D" stroke-width="8"/>
<circle cx="4.02684" cy="30.2" r="3.02" fill="#FF6969"/>
<circle cx="4.02684" cy="96.6401" r="3.02" fill="#FF6969"/>
<circle cx="4.02684" cy="163.08" r="3.02" fill="#FF6969"/>
<circle cx="4.02684" cy="229.52" r="3.02" fill="#FF6969"/>
<circle cx="4.02684" cy="63.42" r="3.02" fill="#FCD486"/>
<circle cx="4.02684" cy="129.86" r="3.02" fill="#FCD486"/>
<circle cx="4.02684" cy="196.3" r="3.02" fill="#FCD486"/>
<circle cx="4.02684" cy="262.74" r="3.02" fill="#FCD486"/>
<circle cx="297.973" cy="30.2" r="3.02" fill="#FCD486"/>
<circle cx="297.973" cy="96.6401" r="3.02" fill="#FCD486"/>
<circle cx="297.973" cy="163.08" r="3.02" fill="#FCD486"/>
<circle cx="297.973" cy="229.52" r="3.02" fill="#FCD486"/>
<circle cx="297.973" cy="63.42" r="3.02" fill="#FF6969"/>
<circle cx="297.973" cy="129.86" r="3.02" fill="#FF6969"/>
<circle cx="297.973" cy="196.3" r="3.02" fill="#FF6969"/>
<circle cx="297.973" cy="262.74" r="3.02" fill="#FF6969"/>
<circle cx="33.7231" cy="4.02668" r="3.02" transform="rotate(-90 33.7231 4.02668)" fill="#FF6969"/>
<circle cx="100.164" cy="4.02668" r="3.02" transform="rotate(-90 100.164 4.02668)" fill="#FF6969"/>
<circle cx="166.603" cy="4.02668" r="3.02" transform="rotate(-90 166.603 4.02668)" fill="#FF6969"/>
<circle cx="233.043" cy="4.02668" r="3.02" transform="rotate(-90 233.043 4.02668)" fill="#FF6969"/>
<circle cx="66.9428" cy="4.02668" r="3.02" transform="rotate(-90 66.9428 4.02668)" fill="#FCD486"/>
<circle cx="133.383" cy="4.02668" r="3.02" transform="rotate(-90 133.383 4.02668)" fill="#FCD486"/>
<circle cx="199.824" cy="4.02668" r="3.02" transform="rotate(-90 199.824 4.02668)" fill="#FCD486"/>
<circle cx="266.263" cy="4.02668" r="3.02" transform="rotate(-90 266.263 4.02668)" fill="#FCD486"/>
<circle cx="33.7231" cy="297.973" r="3.02" transform="rotate(-90 33.7231 297.973)" fill="#FCD486"/>
<circle cx="100.164" cy="297.973" r="3.02" transform="rotate(-90 100.164 297.973)" fill="#FCD486"/>
<circle cx="166.603" cy="297.973" r="3.02" transform="rotate(-90 166.603 297.973)" fill="#FCD486"/>
<circle cx="233.043" cy="297.973" r="3.02" transform="rotate(-90 233.043 297.973)" fill="#FCD486"/>
<circle cx="66.9428" cy="297.973" r="3.02" transform="rotate(-90 66.9428 297.973)" fill="#FF6969"/>
<circle cx="133.383" cy="297.973" r="3.02" transform="rotate(-90 133.383 297.973)" fill="#FF6969"/>
<circle cx="199.824" cy="297.973" r="3.02" transform="rotate(-90 199.824 297.973)" fill="#FF6969"/>
<circle cx="266.263" cy="297.973" r="3.02" transform="rotate(-90 266.263 297.973)" fill="#FF6969"/>
</svg>
