<svg width="30" height="30" viewBox="0 0 30 30" fill="none" xmlns="http://www.w3.org/2000/svg">
<path d="M18.3555 27.7694L7.22842 29.9419C5.55133 30.2699 3.92779 29.1753 3.59974 27.4982L0.0580924 9.34478C-0.269962 7.66769 0.824668 6.04416 2.50176 5.7161L13.6288 3.54358C15.3059 3.21553 16.9294 4.31016 17.2575 5.98725L20.8025 24.1407C21.1239 25.8178 20.0326 27.4413 18.3555 27.7694Z" fill="#FF7E71"/>
<path d="M18.3555 27.7694L7.22842 29.9419C5.55133 30.2699 3.92779 29.1753 3.59974 27.4982L0.0580924 9.34478C-0.269962 7.66769 0.824668 6.04416 2.50176 5.7161L13.6288 3.54358C15.3059 3.21553 16.9294 4.31016 17.2575 5.98725L20.8025 24.1407C21.1239 25.8178 20.0326 27.4413 18.3555 27.7694Z" fill="url(#paint0_linear_1_3224)"/>
<path d="M24.0228 29.5469L7.03094 28.1343C5.33042 27.9937 4.06507 26.4973 4.20566 24.7968L6.03004 2.84396C6.17064 1.14344 7.66697 -0.121915 9.36749 0.0186801L26.3594 1.43132C28.0599 1.57192 29.3252 3.06824 29.1846 4.76877L27.3603 26.7216C27.2163 28.4221 25.7233 29.6875 24.0228 29.5469Z" fill="#5B79FB"/>
<path d="M24.0228 29.5469L7.03094 28.1343C5.33042 27.9937 4.06507 26.4973 4.20566 24.7968L6.03004 2.84396C6.17064 1.14344 7.66697 -0.121915 9.36749 0.0186801L26.3594 1.43132C28.0599 1.57192 29.3252 3.06824 29.1846 4.76877L27.3603 26.7216C27.2163 28.4221 25.7233 29.6875 24.0228 29.5469Z" fill="url(#paint1_linear_1_3224)"/>
<path d="M25.4287 2.18451L10.1574 0.915816C9.01595 0.822086 7.9481 1.22378 7.16478 1.94015C7.04093 7.49029 11.2588 12.2471 16.8658 12.7157C22.4729 13.1844 27.4205 9.18412 28.2105 3.69089C27.5544 2.85401 26.5702 2.27824 25.4287 2.18451Z" fill="#CC3C00"/>
<path d="M25.4957 1.3577L10.2278 0.0890002C8.99809 -0.0776617 8.1411 -0.0776933 7.19847 0.693579C7.07126 6.24372 11.3258 11.4203 16.9329 11.8889C22.5399 12.3576 27.8324 8.24686 28.6224 2.75028C28.0225 1.80762 26.9942 1.37915 25.4957 1.3577Z" fill="#FE9563"/>
<path d="M12.3701 11.9224C12.3701 12.576 12.4989 13.2233 12.7491 13.8273C12.9992 14.4312 13.3659 14.9799 13.8281 15.4421C14.2903 15.9044 14.8391 16.271 15.443 16.5212C16.0469 16.7713 16.6942 16.9001 17.3479 16.9001C18.0016 16.9001 18.6488 16.7713 19.2528 16.5212C19.8567 16.271 20.4054 15.9044 20.8676 15.4421C21.3299 14.9799 21.6965 14.4312 21.9467 13.8273C22.1968 13.2233 22.3256 12.576 22.3256 11.9224C22.3256 10.6022 21.8011 9.33608 20.8676 8.40258C19.9341 7.46908 18.668 6.94464 17.3479 6.94464C16.0277 6.94464 14.7616 7.46908 13.8281 8.40258C12.8946 9.33608 12.3701 10.6022 12.3701 11.9224Z" fill="#B54C02"/>
<path d="M11.9919 11.4738C11.9919 12.794 12.5163 14.0601 13.4498 14.9936C14.3833 15.9271 15.6494 16.4515 16.9696 16.4515C18.2898 16.4515 19.5559 15.9271 20.4894 14.9936C21.4229 14.0601 21.9473 12.794 21.9473 11.4738C21.9473 10.1536 21.4229 8.88752 20.4894 7.95402C19.5559 7.02052 18.2898 6.49608 16.9696 6.49608C15.6494 6.49608 14.3833 7.02052 13.4498 7.95402C12.5163 8.88752 11.9919 10.1536 11.9919 11.4738Z" fill="#F0CA74"/>
<path d="M11.9919 11.4738C11.9919 12.794 12.5163 14.0601 13.4498 14.9936C14.3833 15.9271 15.6494 16.4515 16.9696 16.4515C18.2898 16.4515 19.5559 15.9271 20.4894 14.9936C21.4229 14.0601 21.9473 12.794 21.9473 11.4738C21.9473 10.1536 21.4229 8.88752 20.4894 7.95402C19.5559 7.02052 18.2898 6.49608 16.9696 6.49608C15.6494 6.49608 14.3833 7.02052 13.4498 7.95402C12.5163 8.88752 11.9919 10.1536 11.9919 11.4738Z" fill="url(#paint2_linear_1_3224)"/>
<path d="M14.8277 8.52911L15.9102 8.61525L16.9974 11.2354L18.4853 8.82014L19.5678 8.90627L17.7396 11.6575L18.8303 11.7443L18.7899 12.2528L17.4121 12.1432L17.4033 12.1507L17.3472 12.856L18.7331 12.9663L18.6926 13.4747L17.3067 13.3644L17.2075 14.611L16.2562 14.5353L16.3554 13.2887L14.9777 13.1791L15.0181 12.6707L16.3959 12.7803L16.452 12.075L16.4444 12.0662L15.0749 11.9572L15.1153 11.4487L16.1978 11.5349L14.8277 8.52911Z" fill="white"/>
<defs>
<linearGradient id="paint0_linear_1_3224" x1="1.37113" y1="16.8044" x2="20.9098" y2="16.8044" gradientUnits="userSpaceOnUse">
<stop stop-color="#FD5425"/>
<stop offset="1" stop-color="#FECBBC"/>
</linearGradient>
<linearGradient id="paint1_linear_1_3224" x1="5.31314" y1="14.7477" x2="28.3653" y2="14.7477" gradientUnits="userSpaceOnUse">
<stop stop-color="#FF3800"/>
<stop offset="1" stop-color="#FF7A3A"/>
</linearGradient>
<linearGradient id="paint2_linear_1_3224" x1="11.9974" y1="11.4912" x2="21.9381" y2="11.4912" gradientUnits="userSpaceOnUse">
<stop stop-color="#F9C756"/>
<stop offset="1" stop-color="#FFBC25"/>
</linearGradient>
</defs>
</svg>
