<svg width="13" height="13" viewBox="0 0 13 13" fill="none" xmlns="http://www.w3.org/2000/svg">
<path d="M6.5 0C2.91632 0 0 2.91632 0 6.5C0 10.0837 2.91632 13 6.5 13C10.0837 13 13 10.0837 13 6.5C13 2.91632 10.0837 0 6.5 0ZM8.24362 7.55697L8.64095 9.64777L6.73917 8.6911C6.68131 8.66409 6.61959 8.64866 6.56172 8.64866C6.49614 8.64866 6.42671 8.66795 6.36884 8.69881L4.50564 9.72493L4.82967 7.62255C4.84896 7.49139 4.80653 7.36024 4.70623 7.27151L3.15163 5.81335L5.25401 5.46617C5.38516 5.44688 5.49703 5.36202 5.55104 5.24243L6.45757 3.31751L7.43353 5.20772C7.49139 5.32344 7.61098 5.40445 7.73828 5.42374L9.84837 5.68991L8.35163 7.20208C8.26291 7.29466 8.22048 7.42967 8.24362 7.55697Z" fill="#FFCC00"/>
</svg>
